<svg id="Layer_1" data-name="Layer 1" xmlns="http://www.w3.org/2000/svg" viewBox="0 0 648 648"><defs><style>.cls-1{fill:#e7007a;}.cls-2{fill:#fff;}</style></defs><rect class="cls-1" x="218.4" y="218.26" width="211.2" height="211.2" rx="59.46"/><path class="cls-2" d="M358,324.66c5,5.09,9.24,9.06,13.13,13.31,11.52,12.57,13.08,30,3.74,43.23-6,8.54-14.23,13.83-24.92,14-16.76.24-33.53.35-50.28,0-12.71-.26-22.19-10.13-23.73-23.87a54.8,54.8,0,0,1-.12-6.15v-80c0-1.71-.07-3.43.05-5.13,1.14-16.46,11.38-26.25,27.9-26.42,14-.15,28.05-.2,42.08,0,23.13.31,38.12,18.22,34.38,40.94-1,6.26-4.22,11.47-8.58,16S363.13,319.35,358,324.66Zm-9.92,10.09c-3.3,3.05-6,5.64-8.76,8.07A23.49,23.49,0,0,1,322.4,349c-11.71-.59-21.14-9.23-22.59-20.11-1.74-13.06,4.3-23.24,16.44-27.22,8.91-2.93,16.85-.58,23.83,5.32,2.78,2.36,5.3,5,7.64,7.27,5.34-5.06,10.41-9.2,14.66-14.07,5.34-6.11,6.95-13.37,2.9-20.88-3.78-7-9.47-11.65-17.94-11.67-14.7,0-29.41-.18-44.12.07-8.81.16-13.2,4.53-13.26,13.45q-.27,43.57,0,87.16c.05,8.91,4.17,13.46,13.08,13.73,15,.45,30.13.68,45.14-.12,8.14-.43,14.69-5,17.86-13.32,3-8.05.95-14.7-4.77-20.58C357,343.67,352.7,339.4,348.07,334.75Zm-8.95-10.65c-3.46-2.67-5.61-4.31-7.74-6-.8-.62-1.49-1.39-2.34-1.93a10.22,10.22,0,0,0-12.91,1.61c-3.53,3.85-3.95,8.95-1.05,12.86,3.24,4.38,8.78,5.8,13.35,2.77C331.71,331.27,334.42,328.26,339.12,324.1Z"/></svg>