<svg width="56" height="56" viewBox="0 0 56 56" fill="none" xmlns="http://www.w3.org/2000/svg">
<g clip-path="url(#clip0_4082_9993)">
<g filter="url(#filter0_d_4082_9993)">
<path d="M36.7386 8H19.2614C13.0419 8 8 13.0419 8 19.2614V36.7386C8 42.9581 13.0419 48 19.2614 48H36.7386C42.9581 48 48 42.9581 48 36.7386V19.2614C48 13.0419 42.9581 8 36.7386 8Z" fill="#E7007A"/>
<path d="M34.4235 28.1495C35.3705 29.1135 36.1735 29.8654 36.9103 30.6703C39.0921 33.051 39.3875 36.3522 37.6186 38.8578C36.4822 40.4753 34.9235 41.4772 32.8989 41.5094C29.7247 41.5548 26.5485 41.5756 23.3762 41.5094C20.969 41.4601 19.1735 39.5908 18.8819 36.9885C18.8516 36.601 18.844 36.2121 18.8591 35.8238V20.6722C18.8591 20.3484 18.8459 20.0226 18.8591 19.7006C19.075 16.5832 21.0144 14.7291 24.1432 14.6969C26.7947 14.6684 29.4557 14.659 32.1129 14.6969C36.4936 14.7556 39.3326 18.1476 38.6243 22.4506C38.4349 23.6363 37.825 24.623 36.9993 25.4809C36.1735 26.3389 35.3951 27.1438 34.4235 28.1495ZM32.5447 30.0605C31.9197 30.6381 31.4084 31.1287 30.8856 31.5889C30.4549 31.9854 29.9501 32.2929 29.4001 32.4938C28.8502 32.6947 28.266 32.7849 27.6811 32.7594C25.4633 32.6476 23.6773 31.0113 23.4027 28.9506C23.0731 26.4772 24.2171 24.5491 26.5163 23.7953C28.2038 23.2404 29.7076 23.6855 31.0296 24.8029C31.5561 25.2499 32.0334 25.7499 32.4766 26.1798C33.4879 25.2215 34.4481 24.4374 35.2531 23.515C36.2644 22.3578 36.5788 20.9828 35.8023 19.5605C35.0864 18.2347 34.0088 17.3541 32.4046 17.3503C29.6205 17.3503 26.8345 17.3162 24.0485 17.3635C22.3781 17.3938 21.5485 18.2253 21.5372 19.9109C21.5031 25.4134 21.5031 30.9159 21.5372 36.4185C21.5372 38.106 22.3269 38.9677 24.0144 39.0188C26.8553 39.1041 29.7209 39.1476 32.5637 38.9961C34.1053 38.9147 35.3459 38.0491 35.9463 36.4734C36.5144 34.9582 36.1356 33.6893 35.0428 32.5756C34.2341 31.7499 33.4197 30.9412 32.5428 30.0605H32.5447ZM30.8402 28.0435C30.1849 27.5378 29.7777 27.2272 29.3743 26.9071C29.2228 26.7897 29.0921 26.6438 28.9311 26.5416C28.5517 26.3001 28.1 26.1985 27.6537 26.2542C27.2074 26.3098 26.7945 26.5193 26.486 26.8465C25.8175 27.5756 25.7379 28.551 26.2966 29.2821C26.9103 30.1116 27.9595 30.3806 28.825 29.8067C29.4444 29.4014 29.9614 28.8313 30.8478 28.0435H30.8402Z" fill="white"/>
</g>
</g>
<defs>
<filter id="filter0_d_4082_9993" x="-24" y="-20" width="104" height="104" filterUnits="userSpaceOnUse" color-interpolation-filters="sRGB">
<feFlood flood-opacity="0" result="BackgroundImageFix"/>
<feColorMatrix in="SourceAlpha" type="matrix" values="0 0 0 0 0 0 0 0 0 0 0 0 0 0 0 0 0 0 127 0" result="hardAlpha"/>
<feOffset dy="4"/>
<feGaussianBlur stdDeviation="16"/>
<feComposite in2="hardAlpha" operator="out"/>
<feColorMatrix type="matrix" values="0 0 0 0 0.905882 0 0 0 0 0 0 0 0 0 0.478431 0 0 0 1 0"/>
<feBlend mode="normal" in2="BackgroundImageFix" result="effect1_dropShadow_4082_9993"/>
<feBlend mode="normal" in="SourceGraphic" in2="effect1_dropShadow_4082_9993" result="shape"/>
</filter>
<clipPath id="clip0_4082_9993">
<rect width="56" height="56" rx="16" fill="white"/>
</clipPath>
</defs>
</svg>
