<svg id="Layer_2" data-name="Layer 2" xmlns="http://www.w3.org/2000/svg" viewBox="0 0 648 648"><defs><style>.cls-1{font-size:82.3px;font-family:BerlinSansFBDemi-Bold, Berlin Sans FB Demi;font-weight:700;}.cls-1,.cls-2{fill:#e7007a;}</style></defs><text class="cls-1" transform="translate(178.24 354.82)">Bloc Social</text><path class="cls-2" d="M139.73,324.49c2.74,2.76,5,4.92,7.12,7.22,6.24,6.81,7.09,16.25,2,23.43-3.26,4.63-7.72,7.49-13.51,7.57-9.08.13-18.17.19-27.25,0-6.89-.14-12-5.5-12.86-12.94a28.43,28.43,0,0,1-.06-3.33q0-21.68,0-43.36c0-.92,0-1.85,0-2.78.62-8.92,6.17-14.22,15.12-14.32,7.6-.08,15.21-.11,22.81,0,12.53.17,20.66,9.88,18.63,22.19a16.2,16.2,0,0,1-4.65,8.67C144.83,319.24,142.52,321.62,139.73,324.49ZM134.36,330c-1.79,1.66-3.24,3.06-4.75,4.38a12.89,12.89,0,0,1-21.41-7.55c-.94-7.08,2.33-12.59,8.91-14.75,4.83-1.59,9.13-.32,12.92,2.88,1.51,1.28,2.87,2.73,4.14,3.94,2.89-2.74,5.64-5,7.94-7.62,2.9-3.32,3.77-7.25,1.58-11.32-2.06-3.81-5.14-6.32-9.73-6.33-8,0-15.94-.1-23.91,0-4.77.08-7.15,2.46-7.18,7.29q-.15,23.61,0,47.24c0,4.83,2.26,7.3,7.09,7.44,8.15.24,16.33.37,24.47-.06a10.59,10.59,0,0,0,9.68-7.22c1.65-4.37.51-8-2.59-11.16C139.21,334.8,136.87,332.48,134.36,330Zm-4.85-5.77c-1.88-1.44-3-2.33-4.2-3.24-.43-.33-.81-.75-1.27-1a5.52,5.52,0,0,0-7,.87,5.33,5.33,0,0,0-.57,7,5.23,5.23,0,0,0,7.23,1.5C125.49,328.08,127,326.45,129.51,324.19Z"/></svg>