<svg id="Layer_3" data-name="Layer 3" xmlns="http://www.w3.org/2000/svg" viewBox="0 0 648 648"><defs><style>.cls-1{fill:#e7007a;}</style></defs><path class="cls-1" d="M359.92,320.54c5.31,5.36,9.72,9.53,13.82,14,12.11,13.22,13.75,31.54,3.93,45.48-6.33,9-15,14.55-26.22,14.7-17.63.25-35.27.36-52.9,0-13.37-.27-23.34-10.67-25-25.12a58,58,0,0,1-.12-6.46q0-42.09,0-84.17c0-1.8-.08-3.6.05-5.39,1.2-17.32,12-27.62,29.35-27.8,14.76-.16,29.52-.21,44.27,0,24.34.33,40.11,19.17,36.18,43.07-1.08,6.59-4.45,12.07-9,16.84S365.33,315,359.92,320.54Zm-10.44,10.62c-3.47,3.21-6.27,5.93-9.22,8.49a24.73,24.73,0,0,1-17.79,6.51c-12.32-.63-22.23-9.72-23.76-21.17-1.83-13.73,4.53-24.44,17.29-28.64,9.38-3.08,17.73-.6,25.07,5.61,2.94,2.47,5.58,5.29,8.05,7.65,5.62-5.33,10.95-9.69,15.42-14.81,5.62-6.44,7.31-14.07,3-22-4-7.4-10-12.25-18.87-12.28-15.47,0-31-.19-46.42.08-9.27.16-13.89,4.76-13.95,14.14q-.3,45.86,0,91.71c.05,9.38,4.39,14.16,13.77,14.44,15.82.47,31.7.72,47.48-.12,8.57-.46,15.47-5.23,18.8-14,3.21-8.47,1-15.47-5-21.66C358.91,340.54,354.35,336.05,349.48,331.16ZM340.07,320c-3.64-2.8-5.91-4.53-8.15-6.29-.84-.65-1.57-1.46-2.46-2a10.75,10.75,0,0,0-13.58,1.69c-3.71,4.06-4.15,9.42-1.11,13.53,3.41,4.61,9.24,6.1,14.05,2.92C332.27,327.5,335.12,324.34,340.07,320Z"/></svg>